<svg width="70" height="61" viewBox="0 0 70 61" fill="none" xmlns="http://www.w3.org/2000/svg">
<path d="M58.5955 3.38199V6.68537H51.5168C43.7303 6.68537 42.5505 7.55053 46.7977 10.146C48.1348 10.8539 49.9438 12.5842 50.8876 13.8427C52.2247 15.6517 53.1685 16.1236 55.6067 16.1236H58.5955V19.4269V22.809L64.2584 17.0674L70 11.4045L64.2584 5.74154L58.5955 -2.86102e-05V3.38199Z" fill="url(#paint0_linear_36_21)"/>
<path d="M30.2809 9.3595C30.2809 11.5617 29.8876 12.191 28 12.9775C19.7416 16.3595 18.4045 27.764 25.7978 31.5393C27.1348 32.3258 30.5955 33.3483 33.427 33.9775C38.1461 34.9999 41.2921 36.7303 41.2921 38.3033C41.2921 38.6179 40.5843 39.6404 39.7191 40.5056C37.3595 42.8651 32.3258 42.6292 29.9663 40.1123C28.4719 38.4606 27.3708 38.146 23.9888 38.146C19.8989 38.146 19.8989 38.146 20.4494 40.2696C21.1573 43.1797 24.4607 46.5617 27.6854 47.7415C29.8876 48.528 30.2809 49.0786 30.2809 51.2808V53.8763H35H39.7191V51.2808C39.7191 49.0786 40.1124 48.528 43.0225 47.191C47.7416 44.9101 49.5506 42.1572 49.5506 36.8089C49.5506 32.955 49.3146 32.2471 47.0337 30.2808C45.3034 28.7078 42.7865 27.6853 38.382 26.7415C35 25.955 31.5393 24.7752 30.7528 23.9887C29.3371 22.573 29.3371 22.4157 30.5955 20.528C32.4045 17.6966 37.3595 17.6179 39.5618 20.4494C40.8989 22.1011 41.764 22.4157 45.2247 22.4157C49.3146 22.4157 49.3146 22.4157 48.764 20.2134C48.1348 17.5393 44.9888 14.1572 42 12.9775C40.1124 12.191 39.7191 11.5617 39.7191 9.3595V6.68534H35H30.2809V9.3595Z" fill="url(#paint1_linear_36_21)"/>
<path d="M5.50562 43.6517L0 49.1573L5.74157 54.8988L11.4045 60.5618V57.1797V53.8764H18.4831C24.2247 53.8764 25.5618 53.6404 25.5618 52.6966C25.5618 52.0674 25.0112 51.5168 24.382 51.5168C23.6742 51.5168 21.5506 49.9438 19.5843 47.9775C17.0674 45.382 15.4944 44.4382 13.764 44.4382C11.6404 44.4382 11.4831 44.2022 11.2472 41.2921L11.0112 38.0674L5.50562 43.6517Z" fill="url(#paint2_linear_36_21)"/>
<defs>
<linearGradient id="paint0_linear_36_21" x1="57.1857" y1="22.809" x2="57.1857" y2="-2.67029e-05" gradientUnits="userSpaceOnUse">
<stop stop-color="white"/>
<stop offset="1" stop-color="#5151E3"/>
</linearGradient>
<linearGradient id="paint1_linear_36_21" x1="34.8721" y1="53.8763" x2="34.8721" y2="6.68534" gradientUnits="userSpaceOnUse">
<stop stop-color="white"/>
<stop offset="1" stop-color="#5151E3"/>
</linearGradient>
<linearGradient id="paint2_linear_36_21" x1="12.7809" y1="60.5618" x2="12.7809" y2="38.0674" gradientUnits="userSpaceOnUse">
<stop stop-color="white"/>
<stop offset="1" stop-color="#5151E3"/>
</linearGradient>
</defs>
</svg>
