<svg width="61" height="62" viewBox="0 0 61 62" fill="none" xmlns="http://www.w3.org/2000/svg">
<path d="M26.2089 0.705458C24.4972 1.73244 25.3531 4.64221 27.3214 4.64221C28.5196 4.64221 29.0331 4.04314 29.0331 2.58825C29.0331 0.27755 27.9205 -0.407103 26.2089 0.705458Z" fill="url(#paint0_linear_36_26)"/>
<path d="M40.5866 0.44862C40.5866 1.21886 41.8704 10.0338 42.8118 15.2542L43.2397 18.0784L45.7215 15.7677C47.0908 14.484 48.7169 13.6282 49.4015 13.8849C50.0862 14.1417 51.7978 16.6235 53.0816 19.3622C55.1355 23.4701 55.5634 25.3529 55.5634 30.7445C55.5634 38.0189 53.7662 42.8971 49.2304 48.1176C42.2127 55.9911 28.9475 58.4729 19.0201 53.5948C10.9754 49.658 6.26842 42.8115 4.81353 33.2264C4.21446 29.0329 3.95771 28.605 2.07492 28.605C0.0209587 28.605 -0.0646228 28.8617 0.0209588 33.3975C0.192122 43.325 7.7233 54.0227 17.8219 58.7297C22.2722 60.7837 24.155 61.126 30.3168 61.126C36.4787 61.126 38.3615 60.7837 42.7262 58.7297C52.8248 54.0227 59.9281 44.0952 60.8695 33.312C61.4685 26.8933 60.0137 20.9026 56.3336 14.8263L53.3383 9.94818L55.649 7.5519C56.8471 6.26817 57.5318 5.07003 57.1039 4.81328C56.7616 4.55654 53.3383 3.52956 49.5727 2.50258C45.8927 1.4756 42.2983 0.44862 41.6992 0.191875C41.1001 -0.0648689 40.5866 0.106297 40.5866 0.44862Z" fill="url(#paint1_linear_36_26)"/>
<path d="M15.5112 3.95758C14.3987 4.98456 14.9122 7.46643 16.367 7.97992C18.1643 8.75015 20.3038 6.61061 19.5336 4.8134C19.0201 3.35851 16.5382 2.84502 15.5112 3.95758Z" fill="url(#paint2_linear_36_26)"/>
<path d="M7.72335 10.6327C5.92614 12.5155 6.35405 13.9704 8.75033 14.3127C11.1466 14.655 12.1736 12.2588 10.462 10.5471C9.3494 9.34899 9.00708 9.34899 7.72335 10.6327Z" fill="url(#paint3_linear_36_26)"/>
<path d="M27.7494 17.308C27.7494 18.6774 26.9791 19.7043 25.6098 20.3034C23.5559 21.2448 21.7587 24.3257 21.7587 26.9788C21.7587 29.1183 24.8396 31.429 29.8033 32.7983C34.5103 34.1676 35.5373 35.4513 33.5689 37.4197C32.114 38.8746 28.1773 38.7034 26.8936 37.163C26.2945 36.4783 24.9252 35.8793 23.727 35.8793C20.8173 35.8793 21.4163 38.3611 24.9252 40.5862C26.6368 41.6988 27.6638 42.9825 27.7494 44.1807C27.7494 45.8067 28.2629 46.149 30.3168 46.149C32.3708 46.149 32.8843 45.8067 32.8843 44.1807C32.9699 42.9825 33.9968 41.6988 35.7085 40.5862C37.848 39.2169 38.5327 38.19 38.7038 35.7937C39.0462 31.7713 37.5913 30.402 31.515 28.6048C27.4926 27.4067 26.808 26.9788 27.0647 25.3527C27.4071 22.9564 32.0285 22.2718 33.7401 24.2402C34.9382 25.7806 38.875 26.123 38.875 24.7536C38.875 24.2402 37.9336 22.8709 36.7354 21.7583C35.6229 20.5602 34.2536 19.6188 33.7401 19.6188C33.3122 19.6188 32.8843 18.6774 32.8843 17.4792C32.8843 15.682 32.4564 15.3397 30.3168 15.3397C28.1773 15.3397 27.7494 15.682 27.7494 17.308Z" fill="url(#paint4_linear_36_26)"/>
<path d="M1.47589 20.1325C1.21914 20.8171 1.64705 22.1008 2.41728 22.8711C3.70101 24.1548 3.87217 24.1548 5.15589 22.8711C6.95311 21.0739 6.09729 18.7632 3.78659 18.7632C2.84519 18.7632 1.81821 19.3622 1.47589 20.1325Z" fill="url(#paint5_linear_36_26)"/>
<defs>
<linearGradient id="paint0_linear_36_26" x1="27.1614" y1="4.64221" x2="27.1614" y2="0.183721" gradientUnits="userSpaceOnUse">
<stop stop-color="white"/>
<stop offset="1" stop-color="#5151E3"/>
</linearGradient>
<linearGradient id="paint1_linear_36_26" x1="30.5" y1="61.126" x2="30.5" y2="0.0682564" gradientUnits="userSpaceOnUse">
<stop stop-color="white"/>
<stop offset="1" stop-color="#5151E3"/>
</linearGradient>
<linearGradient id="paint2_linear_36_26" x1="17.3022" y1="8.14136" x2="17.3022" y2="3.35577" gradientUnits="userSpaceOnUse">
<stop stop-color="white"/>
<stop offset="1" stop-color="#5151E3"/>
</linearGradient>
<linearGradient id="paint3_linear_36_26" x1="8.96452" y1="14.3457" x2="8.96452" y2="9.65894" gradientUnits="userSpaceOnUse">
<stop stop-color="white"/>
<stop offset="1" stop-color="#5151E3"/>
</linearGradient>
<linearGradient id="paint4_linear_36_26" x1="30.3168" y1="46.149" x2="30.3168" y2="15.3397" gradientUnits="userSpaceOnUse">
<stop stop-color="white"/>
<stop offset="1" stop-color="#5151E3"/>
</linearGradient>
<linearGradient id="paint5_linear_36_26" x1="3.76157" y1="23.8339" x2="3.76157" y2="18.7632" gradientUnits="userSpaceOnUse">
<stop stop-color="white"/>
<stop offset="1" stop-color="#5151E3"/>
</linearGradient>
</defs>
</svg>
