<svg width="58" height="64" viewBox="0 0 58 64" fill="none" xmlns="http://www.w3.org/2000/svg">
<path d="M20.8568 1.47971C17.3395 2.97641 19.5097 3.94926 26.7687 4.02409C33.1297 4.09893 34.327 4.32343 38.8171 6.56848C51.6139 12.8546 57.7503 26.9235 53.7092 40.319C52.8112 43.2375 51.9132 45.6323 51.6887 45.6323C51.4642 45.6323 49.8178 44.5846 48.0218 43.3872C44.2052 40.768 41.4363 40.5435 38.2933 42.6389C37.0959 43.462 35.5992 44.1356 35.0754 44.1356C33.878 44.1356 21.3058 32.0872 20.0336 29.6176C19.1356 28.0461 19.2104 27.4474 20.6322 25.2024C23.1018 21.2361 22.6528 19.2904 17.7137 11.9566C12.4753 4.17376 11.5772 3.79959 6.26396 7.84067C0.950692 11.8818 -0.47117 14.3513 0.127508 18.3924C0.651352 22.209 4.46793 29.8421 8.06 34.6315C11.8017 39.4958 22.8025 50.5714 27.6667 54.3879C33.429 58.878 40.7628 62.6198 44.9536 63.2184C48.9946 63.8171 51.4642 62.3953 55.5053 57.082C58.5735 53.0409 58.798 50.721 56.2536 48.8502L54.3828 47.5031L56.0291 43.3872C58.349 37.5501 58.349 26.7739 56.0291 20.9368C52.6616 12.4804 46.2258 6.11947 37.9191 2.90157C33.2793 1.10554 23.5508 0.282352 20.8568 1.47971Z" fill="url(#paint0_linear_28_52)"/>
<path d="M27.9662 18.542C27.2178 19.2904 26.694 20.3381 26.694 20.7871C26.694 22.0593 28.7145 21.9096 29.2384 20.5626C29.7622 19.0659 32.6059 19.1407 33.1298 20.5626C33.4291 21.3109 32.3066 23.107 30.1364 25.4268C28.2655 27.4474 26.694 29.4679 26.694 29.9169C26.694 30.3659 28.5648 30.6653 31.1841 30.6653C34.7013 30.6653 35.6741 30.4408 35.6741 29.5428C35.6741 28.7196 34.851 28.4202 32.9801 28.4202H30.286L32.9801 25.4268C34.4768 23.7805 35.6741 21.8348 35.6741 21.0864C35.6741 17.644 30.286 15.9228 27.9662 18.542Z" fill="url(#paint1_linear_28_52)"/>
<path d="M40.9125 21.8348C39.2661 24.3792 37.9939 26.8487 38.1436 27.2229C38.2932 27.6719 39.7899 28.1209 41.5111 28.2706C43.6813 28.4202 44.6542 28.8692 44.6542 29.6176C44.6542 30.2163 45.178 30.6653 45.7767 30.6653C46.3754 30.6653 46.8992 30.1414 46.8992 29.5428C46.8992 28.9441 47.2734 28.4202 47.6476 28.4202C48.0966 28.4202 48.3959 27.8964 48.3959 27.2977C48.3959 26.699 48.0966 26.1752 47.6476 26.1752C47.1986 26.1752 46.8992 24.1547 46.8992 21.6851C46.8992 17.644 46.7496 17.195 45.4025 17.195C44.3549 17.195 42.933 18.6917 40.9125 21.8348ZM44.6542 23.1818C44.6542 25.8759 44.5045 26.1752 42.7833 26.1752C41.7356 26.1752 40.9125 25.9507 40.9125 25.7262C40.9125 25.0527 43.9807 20.1884 44.3549 20.1884C44.5045 20.1884 44.6542 21.5354 44.6542 23.1818Z" fill="url(#paint2_linear_28_52)"/>
<defs>
<linearGradient id="paint0_linear_28_52" x1="29" y1="63.3459" x2="29" y2="0.916569" gradientUnits="userSpaceOnUse">
<stop stop-color="white"/>
<stop offset="1" stop-color="#5151E3"/>
</linearGradient>
<linearGradient id="paint1_linear_28_52" x1="31.1841" y1="30.6653" x2="31.1841" y2="17.2726" gradientUnits="userSpaceOnUse">
<stop stop-color="white"/>
<stop offset="1" stop-color="#5151E3"/>
</linearGradient>
<linearGradient id="paint2_linear_28_52" x1="43.2638" y1="30.6653" x2="43.2638" y2="17.195" gradientUnits="userSpaceOnUse">
<stop stop-color="white"/>
<stop offset="1" stop-color="#5151E3"/>
</linearGradient>
</defs>
</svg>
