<svg width="64" height="63" viewBox="0 0 64 63" fill="none" xmlns="http://www.w3.org/2000/svg">
<path d="M6.8028 2.65154C0.447552 6.59 0.0895105 8.11168 0 31.3844C0 50.5396 0.0895105 52.0613 1.87972 55.1942C2.95385 57.0739 5.28112 59.4012 7.16084 60.4753C10.4727 62.355 11.4573 62.355 37.3259 62.176L64 61.9075V35.5019V9.09629L40.1007 8.82776L16.2014 8.64874L15.9329 4.79979C15.6643 1.30888 15.4853 1.04034 12.979 0.771812C11.3678 0.682304 8.86154 1.39839 6.8028 2.65154ZM59.0769 35.5019V56.9844H34.8196H10.5622L7.96643 54.3886C3.22238 49.6445 5.72867 42.3942 12.5315 40.962L15.6643 40.3355L15.9329 27.1774L16.2014 14.0194H37.5944H59.0769V35.5019Z" fill="url(#paint0_linear_36_37)"/>
<path d="M42.9651 21.6278L45.1133 23.9551L41.3539 27.7145L37.5944 31.3845L34.193 28.0726C32.3133 26.2824 30.1651 24.7607 29.449 24.7607C27.3902 24.7607 21.3035 31.474 21.6616 33.3537C22.1091 35.86 24.884 35.9495 27.3902 33.6222L29.5385 31.5635L32.9399 34.8754C34.8196 36.6656 36.8784 38.1873 37.5944 38.1873C38.3105 38.1873 41.2644 35.86 44.0392 33.0852L49.2308 27.8935L51.4686 30.5789L53.6168 33.2642L53.7063 26.2824V19.3901H47.2616H40.9063L42.9651 21.6278Z" fill="url(#paint1_linear_36_37)"/>
<path d="M21.8406 44.9005C21.4825 45.6166 21.4825 46.8697 21.8406 47.5858C22.2881 48.7495 24.6154 48.9285 37.7734 48.7495L53.2587 48.4809V46.2432V44.0054L37.7734 43.7369C24.6154 43.5579 22.2881 43.7369 21.8406 44.9005Z" fill="url(#paint2_linear_36_37)"/>
<defs>
<linearGradient id="paint0_linear_36_37" x1="32" y1="62.2505" x2="32" y2="0.764305" gradientUnits="userSpaceOnUse">
<stop stop-color="white"/>
<stop offset="1" stop-color="#5151E3"/>
</linearGradient>
<linearGradient id="paint1_linear_36_37" x1="37.6764" y1="38.1873" x2="37.6764" y2="19.3901" gradientUnits="userSpaceOnUse">
<stop stop-color="white"/>
<stop offset="1" stop-color="#5151E3"/>
</linearGradient>
<linearGradient id="paint2_linear_36_37" x1="37.4154" y1="48.8091" x2="37.4154" y2="43.6773" gradientUnits="userSpaceOnUse">
<stop stop-color="white"/>
<stop offset="1" stop-color="#5151E3"/>
</linearGradient>
</defs>
</svg>
