<svg width="62" height="62" viewBox="0 0 62 62" fill="none" xmlns="http://www.w3.org/2000/svg">
<path d="M20.0077 2.58433C19.0747 3.51731 18.3113 4.61992 18.3113 5.04399C18.3113 5.46807 16.8695 5.97697 15.1731 6.31623C9.74493 7.16439 5.58895 12.1685 5.58895 18.0208C5.58895 19.3779 4.82561 21.4983 3.89263 22.6857C2.95966 23.8731 2.19632 25.2302 2.19632 25.5694C2.19632 25.9935 5.24969 26.3328 8.98159 26.3328H15.7669V23.7883C15.7669 22.3464 15.1731 20.226 14.4098 19.1234C12.6287 16.4093 13.4768 13.0167 16.1909 11.7444C20.8558 9.62405 25.0966 14.713 22.2977 19.0386C21.5343 20.1412 20.8558 23.2794 20.6862 25.9935L20.4317 30.9977L10.5083 31.2521C2.19632 31.4217 0.5 31.6762 0.5 32.7788C0.5 34.2207 2.70521 38.8007 4.31671 40.7515C4.91043 41.43 5.58895 43.8897 5.8434 46.0949C6.26748 50.5053 8.47269 53.5587 12.7983 55.7639C14.1554 56.5272 16.3606 58.2236 17.548 59.4958C20.4317 62.5492 23.5699 62.634 26.3688 59.8351C28.2348 58.0539 28.4892 57.0361 28.4892 52.2016V46.6886H25.9448C24.5029 46.6886 22.3825 47.2823 21.2799 48.0456C18.5658 49.8268 15.1731 48.9786 13.9009 46.2645C11.7805 41.5996 16.8695 37.3588 21.2799 40.2426C22.3825 41.0059 24.5029 41.5996 25.9448 41.5996H28.4892V22.9401C28.4892 5.38326 28.4044 4.19584 26.7929 2.58433C25.8599 1.65136 24.3333 0.888016 23.4003 0.888016C22.4673 0.888016 20.9406 1.65136 20.0077 2.58433Z" fill="url(#paint0_linear_36_17)"/>
<path d="M35.2745 2.58429C33.9174 3.94135 33.5782 5.38321 33.5782 10.2177V16.1548H36.1227C37.5645 16.1548 39.6849 15.5611 40.7875 14.7978C43.5016 13.0166 46.8943 13.8648 48.1665 16.5789C50.2869 21.2438 45.198 25.4846 40.7875 22.6008C39.6849 21.8375 37.5645 21.2438 36.1227 21.2438H33.5782V39.4792C33.5782 57.7994 33.5782 57.7994 35.6986 59.835C38.5823 62.8036 41.5509 62.5491 45.1131 58.9868C46.7246 57.3753 48.5906 56.0183 49.2691 56.0183C50.5414 56.0183 55.6303 51.2686 55.6303 50.0812C55.6303 49.6571 52.4921 49.233 48.6754 49.0634L41.6357 48.8089L41.3812 45.077C41.2116 43.0415 40.5331 40.497 39.7697 39.3944C36.9708 35.0688 41.2116 29.9798 45.8765 32.1002C48.5906 33.3725 49.4388 36.7651 47.6576 39.4792C45.1131 43.2959 45.7917 44.1441 51.4743 44.1441C56.0544 44.1441 56.5633 43.9744 56.1392 42.6174C55.7999 41.5996 56.4785 40.2425 58.1748 38.631C62.4156 34.6447 62.5852 29.3013 58.7685 23.7034C57.6659 22.0071 56.5633 18.8689 56.3088 16.6637C55.7151 11.49 51.7288 6.99472 46.9791 6.23137C45.198 5.97692 43.7561 5.46803 43.7561 5.04395C43.7561 3.60208 40.3635 0.887974 38.6671 0.887974C37.7342 0.887974 36.2075 1.65132 35.2745 2.58429Z" fill="url(#paint1_linear_36_17)"/>
<defs>
<linearGradient id="paint0_linear_36_17" x1="14.4946" y1="61.8629" x2="14.4946" y2="0.888016" gradientUnits="userSpaceOnUse">
<stop stop-color="white"/>
<stop offset="1" stop-color="#5151E3"/>
</linearGradient>
<linearGradient id="paint1_linear_36_17" x1="47.5391" y1="61.8774" x2="47.5391" y2="0.887974" gradientUnits="userSpaceOnUse">
<stop stop-color="white"/>
<stop offset="1" stop-color="#5151E3"/>
</linearGradient>
</defs>
</svg>
