<svg width="78" height="60" viewBox="0 0 78 60" fill="none" xmlns="http://www.w3.org/2000/svg">
<path d="M2 2C0.1 3.9 0 5.3 0 30C0 54.7 0.1 56.1 2 58C3.9 59.9 5.3 60 39 60C72.7 60 74.1 59.9 76 58C77.9 56.1 78 54.7 78 30C78 5.3 77.9 3.9 76 2C74.1 0.0999985 72.7 0 39 0C5.3 0 3.9 0.0999985 2 2ZM20.5 24V29.5H15H9.5L9.2 25.1C8.7 18.4 9.2 17.9 15.2 18.2L20.5 18.5V24ZM14.5 45C14.5 46.8 13.9 47.6 12.2 47.8C10.9 48 9.7 47.5 9.4 46.6C8.4 44 9.8 41.8 12.2 42.2C13.9 42.4 14.5 43.2 14.5 45ZM23.5 45C23.5 46.8 22.9 47.6 21.2 47.8C18.8 48.2 17.4 46 18.4 43.4C18.7 42.5 19.9 42 21.2 42.2C22.9 42.4 23.5 43.2 23.5 45ZM35.5 45C35.5 46.8 34.9 47.6 33.2 47.8C30.8 48.2 29.4 46 30.4 43.4C30.7 42.5 31.9 42 33.2 42.2C34.9 42.4 35.5 43.2 35.5 45ZM44.5 45C44.5 46.8 43.9 47.6 42.2 47.8C39.8 48.2 38.4 46 39.4 43.4C39.7 42.5 40.9 42 42.2 42.2C43.9 42.4 44.5 43.2 44.5 45ZM56.5 45C56.5 46.8 55.9 47.6 54.2 47.8C51.8 48.2 50.4 46 51.4 43.4C51.7 42.5 52.9 42 54.2 42.2C55.9 42.4 56.5 43.2 56.5 45ZM65.5 45C65.5 46.8 64.9 47.6 63.2 47.8C61.9 48 60.7 47.5 60.4 46.6C59.4 44 60.8 41.8 63.2 42.2C64.9 42.4 65.5 43.2 65.5 45Z" fill="url(#paint0_linear_36_14)"/>
<defs>
<linearGradient id="paint0_linear_36_14" x1="39" y1="60" x2="39" y2="0" gradientUnits="userSpaceOnUse">
<stop stop-color="white"/>
<stop offset="1" stop-color="#5151E3"/>
</linearGradient>
</defs>
</svg>
