<svg width="70" height="54" viewBox="0 0 70 54" fill="none" xmlns="http://www.w3.org/2000/svg">
<path d="M31.8182 0.771919C28.5657 1.90323 25.3839 4.51939 24.1818 7.20626C22.5556 10.5295 22.9091 21.9133 24.6061 23.8224C25.2424 24.5295 25.8081 25.5901 25.8081 26.1558C25.8081 26.7214 26.4445 28.2063 27.2222 29.479C28.7778 32.0244 29.0606 35.277 27.8586 37.5396C27.4344 38.3174 24.3233 40.2265 21 41.782C14.3536 44.8224 12.1616 46.5194 10.4647 49.6305C8.34346 53.7315 7.91921 53.6608 35 53.6608C62.0808 53.6608 61.6566 53.7315 59.5354 49.6305C57.8384 46.5194 55.6465 44.8224 49 41.782C45.6768 40.2265 42.5657 38.3174 42.1414 37.5396C41.2222 35.7719 41.1515 31.2467 42 30.681C42.3536 30.4689 43.0606 29.1255 43.5556 27.6406C43.9798 26.2265 44.8283 24.4588 45.394 23.8224C47.0202 21.984 47.3031 11.3073 45.8889 7.70121C44.7576 4.94364 42.0707 2.75172 39.6667 2.75172C39.101 2.75172 38.394 2.11535 38.1818 1.33757C37.6869 -0.217979 35.3536 -0.430103 31.8182 0.771919Z" fill="url(#paint0_linear_28_57)"/>
<path d="M15.4141 8.40831C11.0303 10.3881 9.54545 13.2164 9.68687 19.3679C9.75758 23.2568 10.2525 25.0952 11.8081 28.1356C15.0606 34.4285 14.7071 35.4184 7.63636 38.8124C2.54545 41.2164 0.282828 43.6204 0.141414 46.7315L0 49.0649L3.67677 49.277C7.14141 49.4891 7.42424 49.3477 8.48485 47.2972C9.89899 44.5396 14 41.5699 19.2323 39.5194C24.1111 37.5396 25.8081 36.2669 25.8081 34.3578C25.8081 33.0851 23.899 28.7719 21.2121 23.9639C20.505 22.6911 20.2222 20.075 20.3636 14.6305C20.5758 6.00427 20.5758 6.00427 15.4141 8.40831Z" fill="url(#paint1_linear_28_57)"/>
<path d="M49.4242 14.9841C49.3535 22.6911 49.2828 23.0447 46.8081 27.7821C42.7778 35.277 43.202 36.5497 50.7677 39.5194C56 41.5699 60.101 44.5396 61.5152 47.2972C62.5758 49.3477 62.8586 49.4891 66.3232 49.277L70 49.0649L69.9293 46.378C69.7879 42.8427 68.2323 41.2871 61.6566 38.1053C55.5051 35.1356 55.1515 33.9336 58.2626 28.1356C60.1717 24.5295 60.3131 23.6103 60.2424 18.378C60.101 12.9336 59.9596 12.4386 58.1212 10.8124C57.0606 9.89316 55.7172 9.11538 55.2222 9.11538C54.6566 9.11538 54.0909 8.62043 53.8081 8.05478C53.596 7.48912 52.5354 6.99417 51.4747 6.99417H49.495L49.4242 14.9841Z" fill="url(#paint2_linear_28_57)"/>
<defs>
<linearGradient id="paint0_linear_28_57" x1="35" y1="53.6609" x2="35" y2="0.000114441" gradientUnits="userSpaceOnUse">
<stop stop-color="white"/>
<stop offset="1" stop-color="#5151E3"/>
</linearGradient>
<linearGradient id="paint1_linear_28_57" x1="12.904" y1="49.3495" x2="12.904" y2="7.03405" gradientUnits="userSpaceOnUse">
<stop stop-color="white"/>
<stop offset="1" stop-color="#5151E3"/>
</linearGradient>
<linearGradient id="paint2_linear_28_57" x1="57.1408" y1="49.3495" x2="57.1408" y2="6.99417" gradientUnits="userSpaceOnUse">
<stop stop-color="white"/>
<stop offset="1" stop-color="#5151E3"/>
</linearGradient>
</defs>
</svg>
