<svg width="67" height="70" viewBox="0 0 67 70" fill="none" xmlns="http://www.w3.org/2000/svg">
<path d="M13.6764 7.09728L0 14.5175L0.218241 17.7911C0.436482 20.8465 0.654723 21.1375 2.40065 21.3557L4.43757 21.5739L4.58306 36.6326L4.8013 51.6912L12.658 51.9094L20.4419 52.1277V48.0539C20.4419 44.4892 20.7329 43.689 22.4788 41.8704C24.8067 39.6152 30.8447 37.5055 35.1368 37.5055H37.9012V33.4317C37.9012 29.9398 38.1922 29.0669 40.0109 27.321C41.1748 26.0843 43.7937 24.7021 46.3398 23.9746C48.6677 23.3199 50.7774 22.5197 50.9957 22.2287C51.2139 21.8649 52.1596 21.5012 53.1781 21.4284C54.7785 21.1375 54.9967 20.701 55.215 17.7911L55.4332 14.5175L42.4843 7.46102C35.355 3.60543 29.0261 0.33181 28.4441 0.113571C27.8621 -0.104671 21.1694 3.02345 13.6764 7.09728Z" fill="url(#paint0_linear_28_67)"/>
<path d="M46.4126 26.8845C41.6113 28.6304 40.8111 29.7944 40.8111 35.4686V40.4154H36.3008C31.354 40.4882 26.9892 41.7249 24.734 43.7618C23.4973 44.853 23.3518 46.0169 23.3518 55.0376C23.3518 65.0039 23.3518 65.0767 25.2432 66.5316C28.1531 68.7868 32.5179 69.7325 38.4104 69.296C45.6851 68.7868 49.5407 66.5316 49.5407 62.967C49.5407 61.0028 49.6135 61.0028 55.2877 60.5664C60.8893 60.2026 63.2172 59.4751 65.7633 57.2927C66.8545 56.347 67 54.6738 67 43.3253C67 31.5403 66.8545 30.3763 65.6178 29.2124C63.3627 27.1755 58.9978 25.9388 53.9056 25.9388C51.2867 25.9388 47.9403 26.3753 46.4126 26.8845ZM62.126 30.2308C63.2172 30.7401 64.0901 31.3948 64.0901 31.6858C64.0901 32.7042 59.9436 34.0137 55.7242 34.3774C50.1955 34.8867 42.3388 32.777 43.8665 31.3221C46.3399 28.8487 57.6884 28.1939 62.126 30.2308ZM55.4332 37.2873C58.4886 37.0691 61.6895 36.5598 62.5624 36.1234C63.8719 35.3959 64.0901 35.4686 64.0901 36.6326C64.0901 38.7422 60.1618 40.0517 53.9056 40.0517C47.7948 40.0517 43.721 38.7422 43.721 36.7781C43.721 35.6141 43.9392 35.5414 46.8491 36.5598C48.9588 37.3601 51.5776 37.5783 55.4332 37.2873ZM63.2172 44.1255C61.3985 45.3622 57.1792 46.2352 53.5418 46.2352C50.6319 46.1624 49.6862 45.8715 48.7405 44.562L47.5766 42.9616H54.1965C57.9066 42.9616 61.4712 42.5251 62.2715 42.0886C63.4354 41.3611 63.7991 41.4339 63.9446 42.3796C64.0901 43.0343 63.7991 43.8345 63.2172 44.1255ZM44.6667 44.7802C45.7579 45.2895 46.6308 45.9442 46.6308 46.2352C46.6308 47.2536 42.4843 48.5631 38.2649 48.9268C32.7362 49.4361 24.8795 47.3264 26.4072 45.8715C28.8806 43.3981 40.2291 42.7433 44.6667 44.7802ZM63.2172 49.9453C61.3985 51.182 57.1792 52.055 53.3963 52.055C50.1227 52.055 49.5407 51.8367 49.5407 50.6728C49.5407 49.5088 50.3409 49.2906 55.2877 48.9268C58.4886 48.7086 61.6167 48.1994 62.417 47.8356C63.4354 47.2536 63.7991 47.3264 63.9446 48.1994C64.0901 48.8541 63.7991 49.6543 63.2172 49.9453ZM37.974 51.8367C41.0293 51.6185 44.2302 51.1092 45.1032 50.6728C46.4126 49.9453 46.6308 50.018 46.6308 51.182C46.6308 53.2916 42.7025 54.6011 36.4463 54.6011C30.3355 54.6011 26.2617 53.2916 26.2617 51.3275C26.2617 50.1635 26.4799 50.0908 29.3898 51.1092C31.4995 51.9095 34.1184 52.1277 37.974 51.8367ZM63.2172 55.765C61.3985 57.0017 57.1792 57.8747 53.3963 57.8747C50.1227 57.8747 49.5407 57.6565 49.5407 56.4925C49.5407 55.3286 50.3409 55.1103 55.2877 54.7466C58.4886 54.5283 61.6167 54.0191 62.417 53.6554C63.4354 53.0734 63.7991 53.1462 63.9446 54.0191C64.0901 54.6738 63.7991 55.4741 63.2172 55.765ZM37.974 57.6565C41.0293 57.4382 44.2302 56.929 45.1032 56.4925C46.4126 55.765 46.6308 55.8378 46.6308 57.0017C46.6308 59.1114 42.7025 60.4209 36.4463 60.4209C30.3355 60.4209 26.2617 59.1114 26.2617 57.1472C26.2617 55.9833 26.4799 55.9105 29.3898 56.929C31.4995 57.7292 34.1184 57.9475 37.974 57.6565ZM37.974 63.4762C41.0293 63.258 44.2302 62.7488 45.1032 62.3123C46.4126 61.5848 46.6308 61.6576 46.6308 62.8215C46.6308 64.9312 42.7025 66.2406 36.4463 66.2406C30.3355 66.2406 26.2617 64.9312 26.2617 62.967C26.2617 61.8031 26.4799 61.7303 29.3898 62.7488C31.4995 63.549 34.1184 63.7672 37.974 63.4762Z" fill="url(#paint1_linear_28_67)"/>
<defs>
<linearGradient id="paint0_linear_28_67" x1="27.7166" y1="52.1277" x2="27.7166" y2="0.102814" gradientUnits="userSpaceOnUse">
<stop stop-color="white"/>
<stop offset="1" stop-color="#5151E3"/>
</linearGradient>
<linearGradient id="paint1_linear_28_67" x1="45.1759" y1="69.3997" x2="45.1759" y2="25.9388" gradientUnits="userSpaceOnUse">
<stop stop-color="white"/>
<stop offset="1" stop-color="#5151E3"/>
</linearGradient>
</defs>
</svg>
