<svg width="62" height="63" viewBox="0 0 62 63" fill="none" xmlns="http://www.w3.org/2000/svg">
<path d="M23.0879 1.98375C11.5007 5.70202 3.0265 14.9545 0.6053 26.4552L0 29.3087H14.3543H28.7085V15.0409C28.7085 -0.61039 29.0544 0.0813828 23.0879 1.98375Z" fill="url(#paint0_linear_36_9)"/>
<path d="M33.8969 15.6462V30.6058L44.6193 41.3282L55.3418 52.0507L56.6388 49.9753C60.6165 43.9223 62.0001 39.2529 62.0001 31.9028C62.0001 25.6769 61.6542 23.7745 59.5789 19.3645C55.3418 10.285 46.5217 3.28079 36.7504 1.20547L33.8969 0.600174V15.6462Z" fill="url(#paint1_linear_36_9)"/>
<path d="M0.6053 37.264C2.68061 47.1217 9.6848 55.9418 18.7643 60.1789C23.1743 62.2542 25.0767 62.6001 31.3026 62.6001C38.6527 62.6001 43.3222 61.2166 49.3752 57.2389L51.4505 55.9418L40.728 45.2193L30.0056 34.4969H15.046H0L0.6053 37.264Z" fill="url(#paint2_linear_36_9)"/>
<defs>
<linearGradient id="paint0_linear_36_9" x1="14.3561" y1="29.3087" x2="14.3561" y2="1.00248" gradientUnits="userSpaceOnUse">
<stop stop-color="white"/>
<stop offset="1" stop-color="#5151E3"/>
</linearGradient>
<linearGradient id="paint1_linear_36_9" x1="47.9485" y1="52.0507" x2="47.9485" y2="0.600174" gradientUnits="userSpaceOnUse">
<stop stop-color="white"/>
<stop offset="1" stop-color="#5151E3"/>
</linearGradient>
<linearGradient id="paint2_linear_36_9" x1="25.7252" y1="62.6001" x2="25.7252" y2="34.4969" gradientUnits="userSpaceOnUse">
<stop stop-color="white"/>
<stop offset="1" stop-color="#5151E3"/>
</linearGradient>
</defs>
</svg>
