<svg width="51" height="50" viewBox="0 0 51 50" fill="none" xmlns="http://www.w3.org/2000/svg">
<path d="M25.9012 3.5612C32.0808 3.88672 37.0545 8.86719 37.0545 15.0505V18.3659H40.412C42.267 18.3659 43.7695 19.8503 43.7695 21.6829V41.5837C43.7695 43.4163 42.267 44.9007 40.412 44.9007H10.1977C8.34269 44.9007 6.84021 43.4163 6.84021 41.5837V21.6829C6.84021 19.8503 8.34269 18.3659 10.1977 18.3659H13.5552V15.0505C13.5552 8.65885 18.8353 3.44238 25.3048 3.44238C25.5091 3.44564 25.7118 3.48633 25.9012 3.5612ZM16.9127 15.0505V18.3659H33.697V15.0505C33.697 10.4508 29.9605 6.75781 25.3048 6.75781C20.6491 6.75781 16.9127 10.4508 16.9127 15.0505Z" fill="black" stroke="#CCCCCC" stroke-width="0.694186" stroke-miterlimit="10" stroke-linejoin="round"/>
<path d="M25.3048 3.44238C18.8353 3.44238 13.5552 8.65885 13.5552 15.0505V18.3659H10.1977C8.34269 18.3659 6.84021 19.8503 6.84021 21.6829V41.5837C6.84021 43.4163 8.34269 44.9007 10.1977 44.9007H40.412C42.267 44.9007 43.7695 43.4163 43.7695 41.5837V21.6829C43.7695 19.8503 42.267 18.3659 40.412 18.3659H37.0545V15.0505C37.0545 8.86719 32.0808 3.88672 25.9012 3.5612C25.7118 3.48633 25.5091 3.44564 25.3048 3.44238ZM25.3048 6.75781C29.9605 6.75781 33.697 10.4508 33.697 15.0505V18.3659H16.9127V15.0505C16.9127 10.4508 20.6491 6.75781 25.3048 6.75781Z" fill="white"/>
</svg>
